<svg width="32" height="32" viewBox="0 0 32 32" fill="none" xmlns="http://www.w3.org/2000/svg">
<path d="M12 9L3 16.3523L12 23" stroke="#2D3033" stroke-miterlimit="10" stroke-linejoin="round"/>
<path d="M14 23C14 22.6044 13.8827 22.2178 13.6629 21.8889C13.4432 21.56 13.1308 21.3036 12.7654 21.1522C12.3999 21.0009 11.9978 20.9613 11.6098 21.0384C11.2219 21.1156 10.8655 21.3061 10.5858 21.5858C10.3061 21.8655 10.1156 22.2219 10.0384 22.6098C9.96126 22.9978 10.0009 23.3999 10.1522 23.7654C10.3036 24.1308 10.56 24.4432 10.8889 24.6629C11.2178 24.8827 11.6044 25 12 25C12.5304 25 13.0391 24.7893 13.4142 24.4142C13.7893 24.0391 14 23.5304 14 23Z" fill="#00B4F0"/>
<path d="M5 16C5 15.6044 4.8827 15.2178 4.66294 14.8889C4.44318 14.56 4.13082 14.3036 3.76537 14.1522C3.39991 14.0009 2.99778 13.9613 2.60982 14.0384C2.22186 14.1156 1.86549 14.3061 1.58579 14.5858C1.30608 14.8655 1.1156 15.2219 1.03843 15.6098C0.96126 15.9978 1.00087 16.3999 1.15224 16.7654C1.30362 17.1308 1.55996 17.4432 1.88886 17.6629C2.21776 17.8827 2.60444 18 3 18C3.53043 18 4.03914 17.7893 4.41421 17.4142C4.78929 17.0391 5 16.5304 5 16Z" fill="#FF3B4A"/>
<path d="M14 9C14 8.46957 13.7893 7.96086 13.4142 7.58579C13.0391 7.21071 12.5304 7 12 7C11.4696 7 10.9609 7.21071 10.5858 7.58579C10.2107 7.96086 10 8.46957 10 9C10 9.53043 10.2107 10.0391 10.5858 10.4142C10.9609 10.7893 11.4696 11 12 11C12.5304 11 13.0391 10.7893 13.4142 10.4142C13.7893 10.0391 14 9.53043 14 9Z" fill="#00B4F0"/>
<path d="M29 6L21 26" stroke="#2D3033" stroke-miterlimit="10" stroke-linejoin="round"/>
<path d="M23 26C23 25.4696 22.7893 24.9609 22.4142 24.5858C22.0391 24.2107 21.5304 24 21 24C20.4696 24 19.9609 24.2107 19.5858 24.5858C19.2107 24.9609 19 25.4696 19 26C19 26.5304 19.2107 27.0391 19.5858 27.4142C19.9609 27.7893 20.4696 28 21 28C21.5304 28 22.0391 27.7893 22.4142 27.4142C22.7893 27.0391 23 26.5304 23 26Z" fill="#FF3B4A"/>
<path d="M30.9565 5.76916C30.9568 5.53016 30.9046 5.29358 30.803 5.07375C30.7015 4.85392 30.5528 4.65539 30.3658 4.49019C30.1789 4.32498 29.9576 4.19652 29.7153 4.11258C29.4731 4.02864 29.215 3.99096 28.9565 4.00183C28.4492 4.00183 27.9626 4.18803 27.6038 4.51947C27.245 4.85091 27.0435 5.30044 27.0435 5.76916C26.9817 6.03834 26.9858 6.31686 27.0555 6.58439C27.1251 6.85192 27.2585 7.10171 27.4461 7.3155C27.6336 7.52929 27.8704 7.70169 28.1392 7.82012C28.4081 7.93854 28.7022 8 29 8C29.2978 8 29.5919 7.93854 29.8608 7.82012C30.1296 7.70169 30.3664 7.52929 30.5539 7.3155C30.7415 7.10171 30.8749 6.85192 30.9445 6.58439C31.0142 6.31686 31.0183 6.03834 30.9565 5.76916Z" fill="#00B4F0"/>
</svg>
