<svg width="32" height="32" viewBox="0 0 32 32" fill="none" xmlns="http://www.w3.org/2000/svg">
<path d="M5 19.5081C7.20914 19.5081 9 17.7173 9 15.5081C9 13.299 7.20914 11.5081 5 11.5081C2.79086 11.5081 1 13.299 1 15.5081C1 17.7173 2.79086 19.5081 5 19.5081Z" fill="#FF3A49"/>
<path d="M25 31C27.2091 31 29 29.2091 29 27C29 24.7909 27.2091 23 25 23C22.7909 23 21 24.7909 21 27C21 29.2091 22.7909 31 25 31Z" fill="#00B4F0"/>
<path d="M24 9C26.2091 9 28 7.20914 28 5C28 2.79086 26.2091 1 24 1C21.7909 1 20 2.79086 20 5C20 7.20914 21.7909 9 24 9Z" fill="#33383A"/>
</svg>
