<svg width="32" height="32" viewBox="0 0 32 32" fill="none" xmlns="http://www.w3.org/2000/svg">
<path d="M3 7V11.3597C3.20751 13.9872 4.35098 16.437 6.20344 18.2229C8.0559 20.0087 10.4819 21 13 21C15.5181 21 17.9441 20.0087 19.7966 18.2229C21.649 16.437 22.7925 13.9872 23 11.3597V7.14294" stroke="#2D3033" stroke-linejoin="round"/>
<path d="M7 25H19" stroke="#2D3033" stroke-linejoin="round"/>
<path d="M27 16C29.2091 16 31 14.2091 31 12C31 9.79086 29.2091 8 27 8C24.7909 8 23 9.79086 23 12C23 14.2091 24.7909 16 27 16Z" stroke="#2D3033" stroke-linejoin="round"/>
<path d="M3 9C4.10457 9 5 8.10457 5 7C5 5.89543 4.10457 5 3 5C1.89543 5 1 5.89543 1 7C1 8.10457 1.89543 9 3 9Z" fill="#00ADE9"/>
<path d="M23 9C24.1046 9 25 8.10457 25 7C25 5.89543 24.1046 5 23 5C21.8954 5 21 5.89543 21 7C21 8.10457 21.8954 9 23 9Z" fill="#FF3A4B"/>
<path d="M7 27C8.10457 27 9 26.1046 9 25C9 23.8954 8.10457 23 7 23C5.89543 23 5 23.8954 5 25C5 26.1046 5.89543 27 7 27Z" fill="#FF3A4B"/>
<path d="M19 27C20.1046 27 21 26.1046 21 25C21 23.8954 20.1046 23 19 23C17.8954 23 17 23.8954 17 25C17 26.1046 17.8954 27 19 27Z" fill="#00ADE9"/>
</svg>
