<svg enable-background="new 0 0 66 78" viewBox="0 0 66 78" xmlns="http://www.w3.org/2000/svg"><path d="m36.3 71.6-3.8 1.5-3.3-1.3c-14.7-6-24.2-19.4-24.2-34.1v-18.4l27.6-14 28.4 14v18c0 14.9-9.7 28.5-24.7 34.3z" fill="none" stroke="#fff" stroke-width="2"/><path d="m36.5 5c0-2.1-1.7-4-4-4-2.1 0-4 1.7-4 4 0 2.1 1.7 4 4 4s4-1.9 4-4z" fill="#f64d5a"/><path d="m65.3 19.4c0-2.1-1.7-4-4-4-2.1 0-4 1.7-4 4 0 2.1 1.7 4 4 4s4-1.9 4-4z" fill="#00b4f0"/><path d="m36.5 73c0-2.1-1.7-4-4-4-2.1 0-4 1.7-4 4 0 2.1 1.7 4 4 4s4-1.9 4-4z" fill="#f64d5a"/><path d="m8.8 19.4c0-2.1-1.7-4-4-4-2.1 0-4 1.7-4 4 0 2.1 1.7 4 4 4s4-1.9 4-4z" fill="#00b4f0"/><path d="m33 23.6c-8 0-14.5 6.5-14.5 14.5 0 5.8 3.4 10.8 8.4 13.1l4.3-9.3c-1.4-.7-2.5-2.1-2.5-3.8 0-2.3 1.9-4.2 4.2-4.2s4.2 1.9 4.2 4.2c0 1.7-1 3.2-2.5 3.8l4.3 9.3c5-2.3 8.4-7.3 8.4-13.1.2-8-6.3-14.5-14.3-14.5z" fill="#fff"/></svg>